<svg width="599" height="596" viewBox="0 0 599 596" fill="none" xmlns="http://www.w3.org/2000/svg">
<path opacity="0.251" fill-rule="evenodd" clip-rule="evenodd" d="M535.418 583.494C538.713 583.494 541.401 586.088 541.563 589.353H599V589.972H541.563C541.401 593.238 538.713 595.837 535.418 595.837C532.019 595.837 529.266 593.073 529.266 589.663C529.266 587.491 530.386 585.581 532.078 584.481L496.756 523.134C496.007 523.514 495.159 523.728 494.261 523.728C491.307 523.728 488.892 521.41 488.731 518.49H419.373C419.211 522.464 415.946 525.636 411.943 525.636C407.837 525.636 404.51 522.298 404.51 518.179C404.51 515.53 405.886 513.204 407.96 511.881L373.476 451.984C372.669 452.398 371.755 452.631 370.785 452.631C367.512 452.631 364.861 449.974 364.861 446.695C364.861 443.413 367.512 440.753 370.785 440.753C371.755 440.753 372.668 440.987 373.476 441.401L408.151 381.172C406.189 379.916 404.888 377.714 404.888 375.204C404.888 372.699 406.189 370.497 408.151 369.24L372.739 307.736C372.148 308.024 371.486 308.188 370.785 308.188C368.43 308.188 366.503 306.351 366.344 304.031H296.08C295.919 308.109 292.572 311.364 288.467 311.364C284.259 311.364 280.847 307.942 280.847 303.722C280.847 301.005 282.262 298.619 284.393 297.264L250.996 239.255C249.895 239.839 248.642 240.169 247.311 240.169C243.043 240.169 239.567 236.783 239.404 232.544H171.21C171.048 235.848 168.328 238.479 164.992 238.479C161.552 238.479 158.768 235.682 158.768 232.233C158.768 230.032 159.901 228.101 161.615 226.988L125.953 165.048C125.315 165.366 124.596 165.544 123.836 165.544C121.296 165.544 119.223 163.565 119.064 161.059H41.3366L0.0911919 89.4154L0.00195312 89.2613L41.1581 17.7777L31.0253 0.173981H31.7416L41.6948 17.4671H118.513C118.674 14.6593 120.995 12.4311 123.836 12.4311C124.695 12.4311 125.508 12.6354 126.227 12.9986L133.61 0.173981H134.326L126.764 13.3104C128.21 14.2655 129.165 15.9103 129.165 17.7777C129.165 19.6426 128.21 21.2862 126.764 22.2413L151.511 65.2263L160.544 80.9113C161.869 80.202 163.383 79.7972 164.992 79.7972C170.1 79.7972 174.26 83.8695 174.425 88.9519H237.976C238.141 83.9221 242.256 79.9 247.311 79.9C248.901 79.9 250.399 80.2986 251.708 81.0006L274.45 41.502L284.903 23.3468C283.08 22.1679 281.873 20.1134 281.873 17.7777C281.873 15.4407 283.081 13.3875 284.905 12.211L277.977 0.173981H278.693L285.441 11.8992C286.348 11.4296 287.376 11.163 288.467 11.163C292.007 11.163 294.898 13.9586 295.06 17.4671H363.09C363.176 15.3148 364.138 13.3899 365.63 12.0398L358.798 0.173981H362.523L368.425 10.4244C369.168 10.1834 369.961 10.055 370.785 10.055C372.078 10.055 373.295 10.373 374.365 10.9368L380.561 0.173981H381.276L374.901 11.2486C377.055 12.6182 378.487 15.0286 378.487 17.7777C378.487 20.0474 377.51 22.0884 375.954 23.5009L399.59 64.5513H505.008L529.853 21.4011C529.176 20.3568 528.782 19.1131 528.782 17.7777C528.782 15.426 529.998 13.3606 531.835 12.1756L524.928 0.173981H525.643L532.372 11.8637C533.284 11.3905 534.32 11.1214 535.418 11.1214C535.535 11.1214 535.651 11.1251 535.766 11.13L542.074 0.173981H545.799L538.92 12.123C540.719 13.248 541.943 15.212 542.047 17.4671H599V18.0895H542.047C541.883 21.62 538.976 24.4303 535.418 24.4303C534.321 24.4303 533.286 24.1637 532.374 23.6904L507.857 66.2683L534.156 111.944L560.51 157.716H599V160.439V160.953V161.059H560.45L534.156 206.729L507.801 252.503L532.303 295.058C533.276 294.708 534.325 294.516 535.418 294.516C540.383 294.516 544.428 298.47 544.594 303.408H599V304.031H544.594C544.505 306.727 543.262 309.13 541.341 310.756L560.51 344.051H599V347.284H558.648L538.551 312.378C537.573 312.735 536.518 312.929 535.418 312.929C533.856 312.929 532.386 312.537 531.097 311.848L508.278 351.482L496.423 372.071C497.414 372.761 498.063 373.908 498.063 375.204C498.063 376.506 497.414 377.653 496.423 378.34L521.938 422.655L530.738 437.939C532.132 437.188 533.726 436.763 535.418 436.763C540.782 436.763 545.148 441.041 545.314 446.38H599V447.003H545.314C545.151 452.341 540.784 456.622 535.418 456.622C533.726 456.622 532.132 456.196 530.738 455.445L508.278 494.453L497.292 513.534C498.8 514.526 499.794 516.235 499.794 518.179C499.794 520.122 498.8 521.832 497.292 522.822L532.613 584.171C533.454 583.739 534.408 583.494 535.418 583.494ZM251.533 238.947L284.929 296.952C285.987 296.397 287.191 296.08 288.467 296.08C292.571 296.08 295.917 299.333 296.08 303.408H366.345C366.504 301.089 368.431 299.256 370.785 299.256C371.485 299.256 372.147 299.419 372.736 299.707C372.736 299.707 372.736 299.707 372.738 299.707L398.984 254.121H397.723L344.145 161.059H295.104C294.942 164.593 292.032 167.411 288.467 167.411C287.368 167.411 286.331 167.143 285.417 166.667L261.327 208.509L251.532 225.522C253.751 226.928 255.222 229.41 255.222 232.233C255.222 235.06 253.751 237.541 251.533 238.947ZM533.188 157.497L507.741 113.296L497.854 96.1255C496.781 96.6904 495.558 97.0133 494.261 97.0133C490.094 97.0133 486.698 93.7053 486.537 89.5707H421.017C420.857 94.4562 416.855 98.367 411.943 98.367C410.4 98.367 408.947 97.9818 407.673 97.2982L384.802 137.023L373.608 156.47C374.989 157.388 375.9 158.962 375.9 160.75C375.9 162.539 374.989 164.112 373.608 165.028L398.463 208.198L409.829 227.942C410.467 227.624 411.184 227.447 411.943 227.447C414.477 227.447 416.547 229.426 416.707 231.924H483.849C484.012 226.296 488.611 221.787 494.261 221.787C496.047 221.787 497.729 222.239 499.2 223.034L494.082 231.924H494.083L499.2 223.034L521.401 184.474L533.188 164C532.158 163.289 531.481 162.097 531.481 160.75C531.481 159.402 532.158 158.21 533.188 157.497ZM494.261 242.679C488.611 242.679 484.012 238.171 483.849 232.544H416.707C416.548 235.045 414.477 237.02 411.943 237.02C411.184 237.02 410.467 236.844 409.829 236.527L401.563 250.884H504.64L499.2 241.433C497.729 242.227 496.047 242.679 494.261 242.679ZM409.293 236.215C408.013 235.358 407.169 233.894 407.169 232.233C407.169 230.575 408.013 229.111 409.293 228.252L384.267 184.785L373.071 165.341C372.383 165.683 371.607 165.879 370.785 165.879C368.064 165.879 365.839 163.748 365.68 161.059H347.873L399.59 250.884H400.848L409.293 236.215ZM126.226 22.5556C125.507 22.9175 124.695 23.1218 123.836 23.1218C120.996 23.1218 118.676 20.8961 118.513 18.0895H41.6948L0.715863 89.2613L41.6948 160.439H119.064C119.223 157.937 121.296 155.956 123.836 155.956C124.595 155.956 125.314 156.132 125.953 156.45L150.976 112.988L160.006 97.3019C157.334 95.6302 155.555 92.6561 155.555 89.2662C155.555 85.8726 157.334 82.8961 160.007 81.2244L126.226 22.5556ZM247.311 98.6275C242.252 98.6275 238.136 94.5993 237.976 89.5707H174.425C174.263 94.6568 170.103 98.7302 164.992 98.7302C163.383 98.7302 161.868 98.3255 160.543 97.6113L137.853 137.023L126.489 156.762C127.771 157.622 128.617 159.087 128.617 160.75C128.617 162.414 127.772 163.879 126.489 164.738L162.15 226.678C163.002 226.239 163.968 225.992 164.992 225.992C168.328 225.992 171.048 228.617 171.21 231.924H239.404C239.567 227.688 243.043 224.3 247.311 224.3C248.642 224.3 249.895 224.628 250.995 225.209L274.45 184.474L284.881 166.357C283.042 165.173 281.823 163.103 281.823 160.75C281.823 158.395 283.042 156.325 284.88 155.142L260.791 113.296L251.709 97.5245C250.399 98.2276 248.901 98.6275 247.311 98.6275ZM373.162 25.1237C372.414 25.3682 371.615 25.4991 370.785 25.4991C366.638 25.4991 363.255 22.2107 363.09 18.0895H295.06C294.896 21.598 292.006 24.3936 288.467 24.3936C287.375 24.3936 286.347 24.1282 285.441 23.6574L252.245 81.3124C254.887 82.967 256.647 85.9081 256.647 89.2662C256.647 92.617 254.887 95.5605 252.246 97.2126L274.987 136.712L285.416 154.829C286.331 154.355 287.368 154.086 288.467 154.086C292.032 154.086 294.942 156.901 295.104 160.439H343.789L343.152 159.334L396.792 66.1717L373.162 25.1237ZM399.407 68.1087L346.882 159.334L347.517 160.439H365.68C365.839 157.75 368.064 155.62 370.785 155.62C371.607 155.62 372.383 155.815 373.07 156.159L397.925 112.988L407.136 96.9876C404.57 95.3819 402.864 92.5252 402.864 89.2662C402.864 86.0047 404.571 83.1456 407.137 81.5387L399.407 68.1087ZM505.008 67.7896H399.938L407.675 81.2268C408.948 80.5469 410.4 80.1604 411.943 80.1604C416.852 80.1604 420.852 84.0652 421.017 88.9519H486.538C486.702 84.8148 490.096 81.5154 494.261 81.5154C495.558 81.5154 496.78 81.8346 497.853 82.4008L494.082 88.9519H494.083L497.853 82.4008L505.636 68.8816L505.008 67.7896ZM557.716 159.335L557.717 159.334L558.648 157.716L557.716 159.332L531.363 113.563L505.994 69.5041L498.39 82.7127C500.551 84.086 501.987 86.5073 501.987 89.2662C501.987 92.019 500.552 94.4391 498.391 95.8124L521.938 136.712L533.724 157.186C534.238 156.94 534.811 156.802 535.418 156.802C537.49 156.802 539.184 158.407 539.342 160.439H557.079L557.716 159.332V159.335ZM531.363 205.109L556.722 161.059H539.342C539.184 163.092 537.49 164.697 535.418 164.697C534.811 164.697 534.238 164.56 533.724 164.313L508.278 208.509L499.737 223.345C502.702 225.187 504.678 228.478 504.678 232.233C504.678 235.99 502.702 239.28 499.737 241.121L505.183 250.581L531.363 205.109ZM521.401 327.446L530.561 311.536C527.965 309.91 526.237 307.018 526.237 303.722C526.237 300.895 527.509 298.364 529.509 296.674L505.009 254.121H399.7L384.802 279.996L373.274 300.02C374.458 300.821 375.238 302.18 375.238 303.722C375.238 305.26 374.458 306.62 373.274 307.422L408.686 368.93C409.66 368.42 410.768 368.131 411.943 368.131C415.734 368.131 418.829 371.133 418.991 374.896H490.472C490.629 372.937 492.264 371.393 494.261 371.393C494.843 371.393 495.395 371.526 495.887 371.761L494.082 374.896H494.083L495.887 371.761L521.401 327.446ZM530.2 455.133C527.388 453.381 525.517 450.254 525.517 446.695C525.517 443.132 527.388 440.005 530.2 438.252L535.059 446.694L535.061 446.695L535.059 446.692V446.694L530.2 438.252L507.741 399.242L495.887 378.652C495.395 378.887 494.843 379.019 494.261 379.019C492.264 379.019 490.629 377.475 490.472 375.517H418.991C418.829 379.279 415.734 382.279 411.943 382.279C410.768 382.279 409.66 381.993 408.686 381.483L374.011 441.713C375.634 442.772 376.706 444.608 376.706 446.695C376.706 448.779 375.632 450.615 374.01 451.674L408.494 511.569C409.526 511.029 410.698 510.72 411.943 510.72C415.946 510.72 419.211 513.895 419.373 517.868H488.731C488.892 514.946 491.307 512.628 494.261 512.628C495.159 512.628 496.007 512.843 496.756 513.224L494.082 517.868H494.083L496.756 513.224L530.2 455.133Z" fill="#0CB8B6"/>
</svg>
