<svg width="490" height="489" viewBox="0 0 490 489" fill="none" xmlns="http://www.w3.org/2000/svg">
<g clip-path="url(#clip0_562_2061)">
<path opacity="0.251" fill-rule="evenodd" clip-rule="evenodd" d="M437.988 477.956C440.684 477.956 442.883 480.077 443.015 482.747H490V483.253H443.015C442.883 485.924 440.684 488.049 437.988 488.049C435.208 488.049 432.956 485.789 432.956 483C432.956 481.224 433.872 479.662 435.256 478.763L406.362 428.598C405.749 428.909 405.055 429.084 404.321 429.084C401.904 429.084 399.929 427.188 399.797 424.8H343.06C342.928 428.05 340.257 430.644 336.982 430.644C333.623 430.644 330.902 427.914 330.902 424.546C330.902 422.38 332.027 420.478 333.724 419.396L305.515 370.417C304.855 370.755 304.107 370.946 303.314 370.946C300.636 370.946 298.468 368.773 298.468 366.092C298.468 363.408 300.636 361.233 303.314 361.233C304.107 361.233 304.854 361.424 305.515 361.763L333.88 312.512C332.275 311.485 331.211 309.684 331.211 307.632C331.211 305.583 332.275 303.783 333.88 302.755L304.912 252.461C304.429 252.697 303.887 252.831 303.314 252.831C301.387 252.831 299.811 251.329 299.681 249.432H242.203C242.071 252.766 239.333 255.428 235.975 255.428C232.533 255.428 229.742 252.63 229.742 249.179C229.742 246.957 230.899 245.006 232.642 243.898L205.323 196.463C204.422 196.94 203.397 197.21 202.308 197.21C198.817 197.21 195.973 194.441 195.84 190.975H140.055C139.923 193.677 137.698 195.828 134.969 195.828C132.155 195.828 129.877 193.541 129.877 190.721C129.877 188.921 130.804 187.342 132.206 186.432L103.034 135.782C102.512 136.042 101.924 136.187 101.302 136.187C99.224 136.187 97.528 134.569 97.398 132.52H33.815L0.0749531 73.935L0.00195312 73.809L33.669 15.355L25.38 0.960022H25.966L34.108 15.101H96.948C97.0789 12.805 98.978 10.983 101.302 10.983C102.005 10.983 102.67 11.15 103.258 11.447L109.297 0.960022H109.883L103.697 11.702C104.88 12.483 105.661 13.828 105.661 15.355C105.661 16.88 104.88 18.224 103.697 19.005L123.941 54.155L131.33 66.981C132.414 66.401 133.653 66.07 134.969 66.07C139.147 66.07 142.55 69.4 142.685 73.556H194.672C194.807 69.443 198.173 66.154 202.308 66.154C203.609 66.154 204.834 66.48 205.905 67.054L224.509 34.755L233.06 19.909C231.568 18.945 230.581 17.265 230.581 15.355C230.581 13.444 231.569 11.765 233.061 10.803L227.394 0.960022H227.98L233.5 10.548C234.242 10.164 235.083 9.94602 235.975 9.94602C238.871 9.94602 241.236 12.232 241.368 15.101H297.019C297.089 13.341 297.876 11.767 299.097 10.663L293.508 0.960022H296.555L301.383 9.34202C301.991 9.14502 302.64 9.04002 303.314 9.04002C304.371 9.04002 305.367 9.30002 306.242 9.76102L311.311 0.960022H311.896L306.681 10.016C308.443 11.136 309.614 13.107 309.614 15.355C309.614 17.211 308.815 18.88 307.542 20.035L326.877 53.603H413.112L433.436 18.318C432.882 17.464 432.56 16.447 432.56 15.355C432.56 13.432 433.555 11.743 435.057 10.774L429.407 0.960022H429.992L435.497 10.519C436.243 10.132 437.09 9.91202 437.988 9.91202C438.084 9.91202 438.179 9.91502 438.273 9.91902L443.433 0.960022H446.48L440.853 10.731C442.325 11.651 443.326 13.257 443.411 15.101H490V15.61H443.411C443.277 18.497 440.899 20.795 437.988 20.795C437.091 20.795 436.244 20.577 435.498 20.19L415.443 55.007L436.956 92.357L458.514 129.786H490V132.013V132.433V132.52H458.465L436.956 169.865L415.397 207.296L435.44 242.094C436.236 241.808 437.094 241.651 437.988 241.651C442.05 241.651 445.359 244.884 445.495 248.922H490V249.432H445.495C445.422 251.636 444.405 253.601 442.834 254.931L458.514 282.157H490V284.801H456.991L440.551 256.257C439.751 256.549 438.888 256.708 437.988 256.708C436.711 256.708 435.508 256.387 434.454 255.824L415.787 288.234L406.089 305.07C406.9 305.634 407.431 306.572 407.431 307.632C407.431 308.696 406.9 309.634 406.089 310.196L426.961 346.434L434.16 358.932C435.3 358.318 436.604 357.97 437.988 357.97C442.376 357.97 445.948 361.468 446.084 365.834H490V366.344H446.084C445.95 370.709 442.378 374.209 437.988 374.209C436.604 374.209 435.3 373.861 434.16 373.247L415.787 405.145L406.8 420.748C408.034 421.559 408.847 422.956 408.847 424.546C408.847 426.135 408.034 427.533 406.8 428.343L435.694 478.509C436.382 478.156 437.162 477.956 437.988 477.956ZM205.762 196.211L233.081 243.643C233.946 243.189 234.931 242.93 235.975 242.93C239.332 242.93 242.069 245.59 242.203 248.922H299.682C299.812 247.026 301.388 245.527 303.314 245.527C303.886 245.527 304.428 245.66 304.91 245.896C304.91 245.896 304.91 245.896 304.911 245.896L326.381 208.619H325.35L281.521 132.52H241.404C241.272 135.41 238.891 137.714 235.975 137.714C235.076 137.714 234.228 137.495 233.48 137.106L213.774 171.321L205.761 185.233C207.576 186.383 208.78 188.412 208.78 190.721C208.78 193.032 207.576 195.061 205.762 196.211ZM436.164 129.607L415.348 93.463L407.26 79.422C406.382 79.884 405.382 80.148 404.321 80.148C400.912 80.148 398.134 77.443 398.002 74.062H344.405C344.274 78.057 341 81.255 336.982 81.255C335.72 81.255 334.531 80.94 333.489 80.381L314.78 112.865L305.623 128.767C306.753 129.518 307.498 130.805 307.498 132.267C307.498 133.73 306.753 135.016 305.623 135.765L325.955 171.067L335.253 187.212C335.775 186.952 336.361 186.807 336.982 186.807C339.055 186.807 340.748 188.425 340.879 190.468H395.803C395.937 185.866 399.699 182.179 404.321 182.179C405.782 182.179 407.158 182.548 408.361 183.198L404.174 190.468H404.175L408.361 183.198L426.522 151.667L436.164 134.925C435.322 134.343 434.768 133.369 434.768 132.267C434.768 131.165 435.322 130.19 436.164 129.607ZM404.321 199.263C399.699 199.263 395.937 195.576 395.803 190.975H340.879C340.749 193.02 339.055 194.635 336.982 194.635C336.361 194.635 335.775 194.491 335.253 194.232L328.491 205.972H412.811L408.361 198.244C407.158 198.893 405.782 199.263 404.321 199.263ZM334.814 193.977C333.767 193.276 333.077 192.079 333.077 190.721C333.077 189.365 333.767 188.168 334.814 187.465L314.342 151.921L305.184 136.021C304.621 136.301 303.986 136.461 303.314 136.461C301.088 136.461 299.268 134.719 299.138 132.52H284.571L326.877 205.972H327.906L334.814 193.977ZM103.257 19.262C102.669 19.558 102.005 19.725 101.302 19.725C98.979 19.725 97.081 17.905 96.948 15.61H34.108L0.585953 73.809L34.108 132.013H97.398C97.528 129.967 99.224 128.347 101.302 128.347C101.923 128.347 102.511 128.491 103.034 128.751L123.503 93.211L130.89 80.384C128.704 79.017 127.249 76.585 127.249 73.813C127.249 71.038 128.704 68.604 130.891 67.237L103.257 19.262ZM202.308 81.468C198.17 81.468 194.803 78.174 194.672 74.062H142.685C142.553 78.221 139.15 81.552 134.969 81.552C133.653 81.552 132.413 81.221 131.329 80.637L112.768 112.865L103.472 129.006C104.521 129.709 105.213 130.907 105.213 132.267C105.213 133.628 104.522 134.826 103.472 135.528L132.644 186.178C133.341 185.819 134.131 185.617 134.969 185.617C137.698 185.617 139.923 187.764 140.055 190.468H195.84C195.973 187.004 198.817 184.234 202.308 184.234C203.397 184.234 204.422 184.502 205.322 184.977L224.509 151.667L233.042 136.852C231.537 135.884 230.54 134.191 230.54 132.267C230.54 130.341 231.537 128.649 233.041 127.681L213.335 93.463L205.906 80.566C204.834 81.141 203.609 81.468 202.308 81.468ZM305.258 21.362C304.646 21.562 303.993 21.669 303.314 21.669C299.921 21.669 297.154 18.98 297.019 15.61H241.368C241.234 18.479 238.87 20.765 235.975 20.765C235.082 20.765 234.241 20.548 233.5 20.163L206.344 67.309C208.506 68.662 209.945 71.067 209.945 73.813C209.945 76.553 208.506 78.96 206.345 80.311L224.948 112.611L233.479 127.425C234.228 127.038 235.076 126.818 235.975 126.818C238.891 126.818 241.272 129.12 241.404 132.013H281.23L280.709 131.109L324.588 54.928L305.258 21.362ZM326.727 56.512L283.76 131.109L284.28 132.013H299.138C299.268 129.814 301.088 128.072 303.314 128.072C303.986 128.072 304.621 128.232 305.183 128.513L325.515 93.211L333.05 80.127C330.951 78.814 329.555 76.478 329.555 73.813C329.555 71.146 330.952 68.808 333.051 67.494L326.727 56.512ZM413.112 56.251H327.162L333.491 67.239C334.532 66.683 335.72 66.367 336.982 66.367C340.998 66.367 344.27 69.56 344.405 73.556H398.003C398.137 70.173 400.914 67.475 404.321 67.475C405.382 67.475 406.381 67.736 407.259 68.199L404.174 73.556H404.175L407.259 68.199L413.626 57.144L413.112 56.251ZM456.229 131.11L456.23 131.109L456.991 129.786L456.229 131.108L434.671 93.681L413.919 57.653L407.698 68.454C409.466 69.577 410.641 71.557 410.641 73.813C410.641 76.064 409.467 78.043 407.699 79.166L426.961 112.611L436.603 129.353C437.023 129.152 437.492 129.039 437.988 129.039C439.683 129.039 441.069 130.351 441.198 132.013H455.708L456.229 131.108V131.11ZM434.671 168.541L455.416 132.52H441.198C441.069 134.182 439.683 135.495 437.988 135.495C437.492 135.495 437.023 135.383 436.603 135.181L415.787 171.321L408.8 183.453C411.226 184.959 412.842 187.65 412.842 190.721C412.842 193.793 411.226 196.483 408.8 197.989L413.255 205.724L434.671 168.541ZM426.522 268.579L434.015 255.569C431.892 254.239 430.478 251.874 430.478 249.179C430.478 246.867 431.519 244.798 433.155 243.416L413.113 208.619H326.967L314.78 229.778L305.35 246.152C306.318 246.807 306.956 247.918 306.956 249.179C306.956 250.437 306.318 251.549 305.35 252.205L334.318 302.501C335.115 302.084 336.021 301.848 336.982 301.848C340.083 301.848 342.615 304.303 342.748 307.38H401.221C401.35 305.778 402.687 304.515 404.321 304.515C404.797 304.515 405.248 304.624 405.651 304.816L404.174 307.38H404.175L405.651 304.816L426.522 268.579ZM433.72 372.992C431.42 371.559 429.889 369.002 429.889 366.092C429.889 363.178 431.42 360.621 433.72 359.188L437.695 366.091L437.696 366.092L437.695 366.089V366.091L433.72 359.188L415.348 327.288L405.651 310.451C405.248 310.643 404.797 310.751 404.321 310.751C402.687 310.751 401.35 309.489 401.221 307.888H342.748C342.615 310.964 340.083 313.417 336.982 313.417C336.021 313.417 335.115 313.183 334.318 312.766L305.953 362.018C307.28 362.884 308.157 364.385 308.157 366.092C308.157 367.796 307.279 369.297 305.952 370.163L334.161 419.141C335.005 418.699 335.964 418.447 336.982 418.447C340.257 418.447 342.928 421.043 343.06 424.292H399.797C399.929 421.902 401.904 420.007 404.321 420.007C405.055 420.007 405.749 420.183 406.362 420.494L404.174 424.292H404.175L406.362 420.494L433.72 372.992Z" fill="#0154F7"/>
</g>
<defs>
<clipPath id="clip0_562_2061">
<rect width="490" height="489" fill="white"/>
</clipPath>
</defs>
</svg>
