<svg width="489" height="490" viewBox="0 0 489 490" fill="none" xmlns="http://www.w3.org/2000/svg">
<g clip-path="url(#clip0_562_2063)">
<path opacity="0.251" fill-rule="evenodd" clip-rule="evenodd" d="M477.957 437.987C477.957 440.683 480.078 442.882 482.748 443.014L482.748 489.999L483.254 489.999L483.254 443.014C485.925 442.882 488.05 440.683 488.05 437.987C488.05 435.207 485.79 432.955 483.001 432.955C481.225 432.955 479.663 433.871 478.764 435.255L428.599 406.361C428.91 405.748 429.085 405.054 429.085 404.32C429.085 401.903 427.189 399.928 424.801 399.796L424.801 343.059C428.051 342.927 430.645 340.256 430.645 336.981C430.645 333.622 427.915 330.901 424.547 330.901C422.381 330.901 420.479 332.026 419.397 333.723L370.418 305.514C370.756 304.854 370.947 304.106 370.947 303.313C370.947 300.635 368.774 298.467 366.093 298.467C363.409 298.467 361.234 300.635 361.234 303.313C361.234 304.106 361.425 304.853 361.764 305.514L312.513 333.879C311.486 332.274 309.685 331.21 307.633 331.21C305.584 331.21 303.784 332.274 302.756 333.879L252.462 304.911C252.698 304.428 252.832 303.886 252.832 303.313C252.832 301.386 251.33 299.81 249.433 299.68L249.433 242.202C252.767 242.07 255.429 239.332 255.429 235.974C255.429 232.532 252.631 229.741 249.18 229.741C246.958 229.741 245.007 230.898 243.899 232.641L196.464 205.322C196.941 204.421 197.211 203.396 197.211 202.307C197.211 198.816 194.442 195.972 190.976 195.839L190.976 140.054C193.678 139.922 195.829 137.697 195.829 134.968C195.829 132.154 193.542 129.876 190.722 129.876C188.922 129.876 187.343 130.803 186.433 132.205L135.783 103.033C136.043 102.511 136.188 101.923 136.188 101.301C136.188 99.223 134.57 97.527 132.521 97.397L132.521 33.814L73.9359 0.0740103L73.8099 0.00101026L15.3559 33.668L0.960936 25.379L0.960936 25.965L15.1019 34.107L15.1019 96.947C12.8059 97.078 10.9839 98.977 10.9839 101.301C10.9839 102.004 11.1509 102.669 11.4479 103.257L0.960933 109.296L0.960933 109.882L11.7029 103.696C12.4839 104.879 13.8289 105.66 15.3559 105.66C16.8809 105.66 18.2249 104.879 19.0059 103.696L54.1559 123.94L66.9819 131.329C66.4019 132.413 66.0709 133.652 66.0709 134.968C66.0709 139.146 69.4009 142.549 73.5569 142.684L73.5569 194.671C69.4439 194.806 66.1549 198.172 66.1549 202.307C66.1549 203.608 66.4809 204.833 67.0549 205.904L34.7559 224.508L19.9099 233.059C18.9459 231.567 17.2659 230.58 15.3559 230.58C13.4449 230.58 11.7659 231.568 10.8039 233.06L0.960928 227.393L0.960928 227.979L10.5489 233.499C10.1649 234.241 9.94693 235.082 9.94693 235.974C9.94693 238.87 12.2329 241.235 15.1019 241.367L15.1019 297.018C13.3419 297.088 11.7679 297.875 10.6639 299.096L0.960925 293.507L0.960925 296.554L9.34292 301.382C9.14592 301.99 9.04092 302.639 9.04092 303.313C9.04092 304.37 9.30092 305.366 9.76192 306.241L0.960924 311.31L0.960924 311.895L10.0169 306.68C11.1369 308.442 13.1079 309.613 15.3559 309.613C17.2119 309.613 18.8809 308.814 20.0359 307.541L53.6039 326.876L53.6039 413.111L18.3189 433.435C17.4649 432.881 16.4479 432.559 15.3559 432.559C13.4329 432.559 11.7439 433.554 10.7749 435.056L0.960919 429.406L0.960919 429.991L10.5199 435.496C10.1329 436.242 9.91292 437.089 9.91292 437.987C9.91292 438.083 9.91592 438.178 9.91992 438.272L0.960918 443.432L0.960918 446.479L10.7319 440.852C11.6519 442.324 13.2579 443.325 15.1019 443.41L15.1019 489.999L15.6109 489.999L15.6109 443.41C18.4979 443.276 20.7959 440.898 20.7959 437.987C20.7959 437.09 20.5779 436.243 20.1909 435.497L55.0079 415.442L92.3579 436.955L129.787 458.513L129.787 489.999L132.014 489.999L132.434 489.999L132.521 489.999L132.521 458.464L169.866 436.955L207.297 415.396L242.095 435.439C241.809 436.235 241.652 437.093 241.652 437.987C241.652 442.049 244.885 445.358 248.923 445.494L248.923 489.999L249.433 489.999L249.433 445.494C251.637 445.421 253.602 444.404 254.932 442.833L282.158 458.513L282.158 489.999L284.802 489.999L284.802 456.99L256.258 440.55C256.55 439.75 256.709 438.887 256.709 437.987C256.709 436.71 256.388 435.507 255.825 434.453L288.235 415.786L305.071 406.088C305.635 406.899 306.573 407.43 307.633 407.43C308.697 407.43 309.635 406.899 310.197 406.088L346.435 426.96L358.933 434.159C358.319 435.299 357.971 436.603 357.971 437.987C357.971 442.375 361.469 445.947 365.835 446.083L365.835 489.999L366.345 489.999L366.345 446.083C370.71 445.949 374.21 442.377 374.21 437.987C374.21 436.603 373.862 435.299 373.248 434.159L405.146 415.786L420.749 406.799C421.56 408.033 422.957 408.846 424.547 408.846C426.136 408.846 427.534 408.033 428.344 406.799L478.51 435.693C478.157 436.381 477.957 437.161 477.957 437.987ZM196.212 205.761L243.644 233.08C243.19 233.945 242.931 234.93 242.931 235.974C242.931 239.331 245.591 242.068 248.923 242.202L248.923 299.681C247.027 299.811 245.528 301.387 245.528 303.313C245.528 303.885 245.661 304.427 245.897 304.909C245.897 304.909 245.897 304.909 245.897 304.91L208.62 326.38L208.62 325.349L132.521 281.52L132.521 241.403C135.411 241.271 137.715 238.89 137.715 235.974C137.715 235.075 137.496 234.227 137.107 233.479L171.322 213.773L185.234 205.76C186.384 207.575 188.413 208.779 190.722 208.779C193.033 208.779 195.062 207.575 196.212 205.761ZM129.608 436.163L93.4639 415.347L79.4229 407.259C79.8849 406.381 80.1489 405.381 80.1489 404.32C80.1489 400.911 77.4439 398.133 74.0629 398.001L74.0629 344.404C78.0579 344.273 81.2559 340.999 81.2559 336.981C81.2559 335.719 80.9409 334.53 80.3819 333.488L112.866 314.779L128.768 305.622C129.519 306.752 130.806 307.497 132.268 307.497C133.731 307.497 135.017 306.752 135.766 305.622L171.068 325.954L187.213 335.252C186.953 335.774 186.808 336.36 186.808 336.981C186.808 339.054 188.426 340.747 190.469 340.878L190.469 395.802C185.867 395.936 182.18 399.698 182.18 404.32C182.18 405.781 182.549 407.157 183.199 408.36L190.469 404.173L190.469 404.174L183.199 408.36L151.668 426.521L134.926 436.163C134.344 435.321 133.37 434.767 132.268 434.767C131.166 434.767 130.191 435.321 129.608 436.163ZM199.264 404.32C199.264 399.698 195.577 395.936 190.976 395.802L190.976 340.878C193.021 340.748 194.636 339.054 194.636 336.981C194.636 336.36 194.492 335.774 194.233 335.252L205.973 328.49L205.973 412.81L198.245 408.36C198.894 407.157 199.264 405.781 199.264 404.32ZM193.978 334.813C193.277 333.766 192.08 333.076 190.722 333.076C189.366 333.076 188.169 333.766 187.466 334.813L151.922 314.341L136.022 305.183C136.302 304.62 136.462 303.985 136.462 303.313C136.462 301.087 134.72 299.267 132.521 299.137L132.521 284.57L205.973 326.876L205.973 327.905L193.978 334.813ZM19.2629 103.256C19.5589 102.668 19.7259 102.004 19.7259 101.301C19.7259 98.978 17.9059 97.08 15.6109 96.947L15.6109 34.107L73.8099 0.58501L132.014 34.107L132.014 97.397C129.968 97.527 128.348 99.223 128.348 101.301C128.348 101.922 128.492 102.51 128.752 103.033L93.2119 123.502L80.3849 130.889C79.0179 128.703 76.5859 127.248 73.8139 127.248C71.0389 127.248 68.6049 128.703 67.2379 130.89L19.2629 103.256ZM81.4689 202.307C81.4689 198.169 78.1749 194.802 74.0629 194.671L74.0629 142.684C78.2219 142.552 81.5529 139.149 81.5529 134.968C81.5529 133.652 81.2219 132.412 80.6379 131.328L112.866 112.767L129.007 103.471C129.71 104.52 130.908 105.212 132.268 105.212C133.629 105.212 134.827 104.521 135.529 103.471L186.179 132.643C185.82 133.34 185.618 134.13 185.618 134.968C185.618 137.697 187.765 139.922 190.469 140.054L190.469 195.839C187.005 195.972 184.235 198.816 184.235 202.307C184.235 203.396 184.503 204.421 184.978 205.321L151.668 224.508L136.853 233.041C135.885 231.536 134.192 230.539 132.268 230.539C130.342 230.539 128.65 231.536 127.682 233.04L93.4639 213.334L80.5669 205.905C81.1419 204.833 81.4689 203.608 81.4689 202.307ZM21.3629 305.257C21.5629 304.645 21.6699 303.992 21.6699 303.313C21.6699 299.92 18.9809 297.153 15.6109 297.018L15.6109 241.367C18.4799 241.233 20.7659 238.869 20.7659 235.974C20.7659 235.081 20.5489 234.24 20.1639 233.499L67.3099 206.343C68.6629 208.505 71.0679 209.944 73.8139 209.944C76.5539 209.944 78.9609 208.505 80.3119 206.344L112.612 224.947L127.426 233.478C127.039 234.227 126.819 235.075 126.819 235.974C126.819 238.89 129.121 241.271 132.014 241.403L132.014 281.229L131.11 280.708L54.9289 324.587L21.3629 305.257ZM56.5129 326.726L131.11 283.759L132.014 284.279L132.014 299.137C129.815 299.267 128.073 301.087 128.073 303.313C128.073 303.985 128.233 304.62 128.514 305.182L93.2119 325.514L80.1279 333.049C78.8149 330.95 76.4789 329.554 73.8139 329.554C71.1469 329.554 68.8089 330.951 67.4949 333.05L56.5129 326.726ZM56.2519 413.111L56.2519 327.161L67.2399 333.49C66.6839 334.531 66.3679 335.719 66.3679 336.981C66.3679 340.997 69.5609 344.269 73.5569 344.404L73.5569 398.002C70.1739 398.136 67.4759 400.913 67.4759 404.32C67.4759 405.381 67.7369 406.38 68.1999 407.258L73.5569 404.173L73.5569 404.174L68.1999 407.258L57.1449 413.625L56.2519 413.111ZM131.111 456.228L131.11 456.229L129.787 456.99L131.109 456.228L93.6819 434.67L57.6539 413.918L68.4549 407.697C69.5779 409.465 71.5579 410.64 73.8139 410.64C76.0649 410.64 78.0439 409.466 79.1669 407.698L112.612 426.96L129.354 436.602C129.153 437.022 129.04 437.491 129.04 437.987C129.04 439.682 130.352 441.068 132.014 441.197L132.014 455.707L131.109 456.228L131.111 456.228ZM168.542 434.67L132.521 455.415L132.521 441.197C134.183 441.068 135.496 439.682 135.496 437.987C135.496 437.491 135.384 437.022 135.182 436.602L171.322 415.786L183.454 408.799C184.96 411.225 187.651 412.841 190.722 412.841C193.794 412.841 196.484 411.225 197.99 408.799L205.725 413.254L168.542 434.67ZM268.58 426.521L255.57 434.014C254.24 431.891 251.875 430.477 249.18 430.477C246.868 430.477 244.799 431.518 243.417 433.154L208.62 413.112L208.62 326.966L229.779 314.779L246.153 305.349C246.808 306.317 247.919 306.955 249.18 306.955C250.438 306.955 251.55 306.317 252.206 305.349L302.502 334.317C302.085 335.114 301.849 336.02 301.849 336.981C301.849 340.082 304.304 342.614 307.381 342.747L307.381 401.22C305.779 401.349 304.516 402.686 304.516 404.32C304.516 404.796 304.625 405.247 304.817 405.65L307.381 404.173L307.381 404.174L304.817 405.65L268.58 426.521ZM372.993 433.719C371.56 431.419 369.003 429.888 366.093 429.888C363.179 429.888 360.622 431.419 359.189 433.719L366.092 437.694L366.093 437.695L366.09 437.694L366.092 437.694L359.189 433.719L327.289 415.347L310.452 405.65C310.644 405.247 310.752 404.796 310.752 404.32C310.752 402.686 309.49 401.349 307.889 401.22L307.889 342.747C310.965 342.614 313.418 340.082 313.418 336.981C313.418 336.02 313.184 335.114 312.767 334.317L362.019 305.952C362.885 307.279 364.386 308.156 366.093 308.156C367.797 308.156 369.298 307.278 370.164 305.951L419.142 334.16C418.7 335.004 418.448 335.963 418.448 336.981C418.448 340.256 421.044 342.927 424.293 343.059L424.293 399.796C421.903 399.928 420.008 401.903 420.008 404.32C420.008 405.054 420.184 405.748 420.495 406.361L424.293 404.173L424.293 404.174L420.495 406.361L372.993 433.719Z" fill="#0154F7"/>
</g>
<defs>
<clipPath id="clip0_562_2063">
<rect width="490" height="489" fill="white" transform="matrix(-4.37114e-08 1 1 4.37114e-08 0 0)"/>
</clipPath>
</defs>
</svg>
