<svg width="244" height="650" viewBox="0 0 244 650" fill="none" xmlns="http://www.w3.org/2000/svg">
<g clip-path="url(#clip0_562_2737)">
<path opacity="0.122" fill-rule="evenodd" clip-rule="evenodd" d="M41.7183 -0.00299255L81.1983 0.0389979L100.908 34.109L81.1253 68.124L41.6453 68.081L37.4043 60.752L36.4053 62.471L31.3783 62.465L28.8693 58.128L31.3873 53.795L33.3803 53.797L21.9403 34.024L41.7183 -0.00299255ZM29.0053 58.128L31.4463 62.348L36.3383 62.354L37.3373 60.635L33.4483 53.914L31.4553 53.912L29.0053 58.128ZM37.8723 59.714L38.7883 58.139L36.3473 53.917L34.5183 53.915L37.8723 59.714ZM34.4503 53.798L36.4153 53.8L38.9253 58.139L37.9403 59.831L42.1813 67.16L80.5913 67.202L99.8383 34.108L80.6633 0.958981L42.2523 0.919005L23.0093 34.026L34.4503 53.798ZM107.812 56.492L115.016 56.499L118.612 62.713L115.003 68.923L107.799 68.915L104.203 62.698L107.812 56.492ZM114.906 68.755L118.417 62.713L114.918 56.667L107.909 56.66L104.397 62.698L107.896 68.747L114.906 68.755ZM143.478 62.31L149.298 62.316L152.201 67.336L149.286 72.352L143.466 72.346L140.561 67.324L143.478 62.31ZM111.259 80.403L130.247 113.234L111.188 146.024L73.1413 145.983L71.2883 142.783L60.8883 160.666L21.4083 160.623L1.70431 126.566L21.4823 92.538L60.9603 92.58L63.5273 97.016L73.2103 80.362L111.259 80.403ZM60.4263 93.501L22.0153 93.461L2.77331 126.568L21.9433 159.702L60.3553 159.743L70.7553 141.861L54.1453 113.153L62.9923 97.937L60.4263 93.501ZM72.8193 138.313L79.6023 126.65L65.0473 101.49L58.2643 113.157L72.8193 138.313ZM65.5833 100.57L80.6723 126.651L73.3523 139.234L75.2033 142.433L109.133 142.47L126.129 113.23L109.196 83.952L75.2673 83.915L65.5833 100.57ZM62.6093 155.111L61.0603 157.773L57.9703 157.77L56.4283 155.105L57.9763 152.44L61.0663 152.444L62.6093 155.111ZM159.565 168.236L180.136 203.804L159.594 239.14L162.28 239.143L167.019 247.334L183.64 247.351L198.824 273.604L183.582 299.829L157.89 299.801L139.357 331.682L142.042 331.685L148.807 343.375L150.533 340.403L176.948 340.431L179.722 345.228L180.338 344.168L218.955 344.21L238.228 377.531L218.883 410.814L206.662 410.801L209.766 416.167L197.014 438.106L171.557 438.078L162.035 421.623L158.584 427.56L148.827 427.55L136.492 448.771L137.247 450.075L103.46 508.199L97.9483 508.193L105.085 520.529L97.4563 533.653L121.327 533.678L140.216 566.334L141.733 563.719L145.466 563.723L147.328 566.945L145.459 570.162L142.427 570.16L154.988 591.878L121.204 650.001L53.7573 649.929L20.0963 591.734L42.7163 552.818L23.9903 520.443L33.5883 503.931L2.35432 449.931L36.1393 391.804L50.8273 391.819L59.3963 377.078L45.0813 377.063L15.4623 325.853L45.1923 274.707L89.9573 274.755L98.1063 260.734L119.181 260.757L131.656 239.293L118.266 239.279L104.436 215.368L90.9533 238.566L52.9033 238.525L33.9083 205.695L52.9753 172.904L91.0223 172.944L103.272 194.123L118.343 168.192L159.565 168.236ZM147.228 566.945L145.416 563.81L141.783 563.806L140.266 566.421L142.378 570.072L145.409 570.075L147.228 566.945ZM142.567 583.018L135.278 583.011L131.403 589.676L135.264 596.348L142.996 596.356L146.648 590.074L142.567 583.018ZM27.3993 591.741L57.4153 643.638L117.559 643.701L147.687 591.87L147.116 590.884L143.465 597.166L134.793 597.157L130.463 589.675L134.81 582.2L142.099 582.208L117.671 539.971L93.7993 539.945L84.7733 555.473L48.5023 555.434L27.3993 591.741ZM49.2733 554.106L84.0043 554.144L92.2583 539.943L57.5273 539.906L49.2733 554.106ZM25.5313 520.444L43.4873 551.49L53.8823 533.606L95.9163 533.651L103.544 520.527L96.4083 508.191L36.0143 508.127L34.3563 505.26L25.5313 520.444ZM153.621 248.029L142.761 266.714L156.835 291.048L161.81 291.054L176.687 265.473L166.603 248.043L153.621 248.029ZM137.968 273.539L141.79 266.964L138.769 261.739L119.447 261.719L117.303 265.409L132.12 291.022L148.09 291.039L137.968 273.539ZM148.913 291.04L155.719 291.047L142.202 267.675L138.793 273.54L148.913 291.04ZM198.001 273.604L183.227 248.061L167.429 248.044L177.514 265.473L162.223 291.766L157.246 291.761L159.898 296.345L158.303 299.092L183.172 299.118L198.001 273.604ZM149.326 291.752L153.567 299.087L157.186 299.091L158.784 296.344L156.131 291.76L149.326 291.752ZM111.938 332.365L97.0663 357.951L102.468 367.289L108.535 367.295L128.829 332.383L111.938 332.365ZM107.731 368.68L103.27 368.675L105.497 372.524L107.731 368.68ZM106.299 373.91L111.883 383.564L132.262 383.586L123.652 368.697L109.337 368.682L106.299 373.91ZM141.63 332.396L130.436 332.384L110.142 367.297L124.456 367.313L133.869 383.587L141.574 383.596L145.356 377.092L137.301 363.169L148.393 344.086L141.63 332.396ZM145.768 377.805L141.987 384.308L134.281 384.3L145.534 403.755L158.61 403.769L162.307 410.161L171.134 394.982L165.923 385.972L150.484 385.956L145.768 377.805ZM176.542 385.367L189.42 363.226L181.451 349.45L165.174 377.453L169.747 385.36L176.542 385.367ZM145.714 376.477L156.451 358.014L148.75 344.703L138.015 363.171L145.714 376.477ZM176.59 341.047L150.89 341.02L149.163 343.991L157.276 358.015L146.126 377.189L150.842 385.34L165.566 385.356L160.993 377.448L179.365 345.843L176.59 341.047ZM234.049 377.527L216.861 347.813L182.425 347.775L181.809 348.834L190.135 363.226L176.899 385.984L170.103 385.977L174.846 394.177L197.062 394.2L204.577 407.194L216.797 407.207L234.049 377.527ZM176.221 396.555L182.361 407.17L201.821 407.191L195.681 396.576L176.221 396.555ZM172.937 435.704L195.639 435.728L207.01 416.164L203.907 410.798L180.266 410.773L172.509 397.36L163.682 412.539L165.495 415.67L163.416 419.248L172.937 435.704ZM162.936 413.826L161.603 416.115L162.669 417.959L164.001 415.669L162.936 413.826ZM161.29 420.334L158.847 416.112L161.559 411.448L157.862 405.056L146.279 405.043L154.075 418.522L149.575 426.263L157.839 426.272L161.29 420.334ZM145.117 405.808L139.4 415.643L145.539 426.259L147.969 426.262L152.469 418.52L145.117 405.808ZM129.945 450.067L99.9283 398.168L48.7763 398.113L36.9863 418.397L65.8033 468.221L119.359 468.277L129.945 450.067ZM39.6723 501.835L92.7653 501.892L84.0763 486.871L45.0703 486.829L38.0143 498.968L39.6723 501.835ZM9.65532 449.939L37.2443 497.639L44.3003 485.5L84.8473 485.544L94.3043 501.894L99.8173 501.899L118.555 469.662L64.9983 469.604L35.3793 418.395L47.1703 398.112L39.7833 398.104L9.65532 449.939ZM104.43 377.126L61.0023 377.08L52.4333 391.821L103.586 391.876L135.69 447.385L147.221 427.548L144.791 427.546L137.908 415.641L144.371 404.52L132.675 384.298L111.47 384.276L105.885 374.621L104.43 377.126ZM103.627 375.74L105.083 373.235L102.445 368.674L65.9113 368.635L61.8053 375.696L103.627 375.74ZM17.0693 325.855L45.8863 375.679L60.2003 375.694L65.1093 367.249L101.642 367.288L96.2403 357.95L111.42 331.835L98.0303 331.821L77.4593 296.258L89.1533 276.139L45.9933 276.093L17.0693 325.855ZM129.696 330.892L132.552 325.978L103.735 276.155L90.2693 276.14L78.5753 296.259L98.5883 330.859L129.696 330.892ZM91.0733 274.756L104.54 274.771L134.158 325.98L131.302 330.894L138.694 330.902L156.774 299.8L153.155 299.796L148.502 291.751L131.706 291.733L116.478 265.408L118.622 261.718L98.6643 261.697L91.0733 274.756ZM120.006 260.758L139.328 260.778L142.35 266.003L153.211 247.319L166.192 247.333L161.865 239.855L132.174 239.823L120.006 260.758ZM88.9593 176.494L55.0303 176.458L38.0273 205.699L54.9673 234.975L88.8963 235.011L102.381 211.814L97.6963 203.716L101.208 197.673L88.9593 176.494ZM102.939 210.853L105.892 205.771L101.765 198.635L98.8113 203.717L102.939 210.853ZM103.828 195.085L110.011 205.776L104.995 214.406L118.825 238.317L158.931 238.36L179.019 203.803L159.006 169.197L118.9 169.155L103.828 195.085ZM141.559 222.126L139.308 225.996L134.819 225.991L132.579 222.116L134.828 218.247L139.317 218.252L141.559 222.126ZM133.066 222.117L135.062 225.572L139.067 225.576L141.073 222.126L139.074 218.67L135.069 218.666L133.066 222.117ZM75.4003 222.385L71.6373 228.857L64.1263 228.849L60.3773 222.369L64.1393 215.894L71.6513 215.902L75.4003 222.385ZM60.5803 222.369L64.2273 228.674L71.5353 228.681L75.1953 222.385L71.5493 216.077L64.2403 216.069L60.5803 222.369ZM144.854 429.441L143.296 432.123L140.183 432.119L138.628 429.434L140.19 426.752L143.302 426.756L144.854 429.441ZM138.966 429.434L140.352 431.829L143.127 431.832L144.517 429.441L143.133 427.046L140.357 427.043L138.966 429.434ZM42.3733 247.653L40.8243 250.316L37.7343 250.312L36.1913 247.646L37.7393 244.982L40.8303 244.986L42.3733 247.653ZM15.0093 314.927L11.2473 321.398L3.73631 321.39L-0.0136865 314.912L3.74931 308.436L11.2603 308.444L15.0093 314.927ZM0.191313 314.912L3.83731 321.215L11.1453 321.223L14.8053 314.927L11.1593 308.618L3.85131 308.611L0.191313 314.912ZM202.726 626.096L162.486 626.053L149.197 648.918L144.312 648.912L160.048 621.838L205.174 621.886L220.852 648.994L215.967 648.989L202.726 626.096ZM214.891 618.5L219.513 610.547L228.742 610.557L233.349 618.52L228.725 626.475L219.496 626.465L214.891 618.5ZM232.349 618.519L228.241 611.418L220.012 611.409L215.889 618.501L219.997 625.604L228.227 625.613L232.349 618.519ZM138.348 520.102L124.554 520.087L117.671 508.183L124.579 496.296L138.374 496.311L145.257 508.212L138.348 520.102ZM137.626 497.598L125.325 497.584L119.164 508.184L125.303 518.8L137.603 518.814L143.764 508.211L137.626 497.598ZM165.534 484.855L170.56 484.86L173.069 489.197L170.551 493.528L165.947 493.523L168.046 497.151L163.701 504.624L155.031 504.615L150.7 497.133L155.047 489.659L163.295 489.667L163.016 489.186L165.534 484.855ZM151.639 497.134L155.5 503.806L163.233 503.814L167.106 497.15L163.247 490.477L155.515 490.468L151.639 497.134ZM163.431 489.667L163.717 489.668L165.879 493.406L170.483 493.41L172.933 489.197L170.492 484.977L165.602 484.971L163.152 489.186L163.431 489.667ZM159.832 558.425L179.723 524.205L204.167 524.232L200.552 517.983L210.708 500.51L201.75 500.5L187.986 476.706L201.802 452.939L229.381 452.968L243.144 476.765L229.401 500.408L231.198 500.41L241.39 518.026L231.159 535.619L226.005 535.614L239.249 558.51L219.357 592.731L179.649 592.689L159.832 558.425ZM242.399 476.764L229.008 453.611L202.173 453.583L188.732 476.707L202.124 499.857L228.958 499.885L242.399 476.764ZM240.838 518.026L230.921 500.886L211.055 500.864L201.105 517.984L204.719 524.232L219.43 524.248L225.729 535.136L230.884 535.142L240.838 518.026ZM205.257 525.159L211.019 535.121L224.654 535.135L218.892 525.174L205.257 525.159ZM238.174 558.509L224.93 535.612L210.742 535.597L204.703 525.159L180.259 525.133L160.907 558.426L180.188 591.763L218.82 591.804L238.174 558.509ZM228.914 565.811L229.957 564.017L232.041 564.019L233.079 565.816L232.036 567.61L229.953 567.608L228.914 565.811ZM232.855 565.815L231.927 564.214L230.069 564.212L229.139 565.812L230.066 567.414L231.923 567.416L232.855 565.815ZM160.374 444.182L161.411 442.4L163.479 442.402L164.512 444.187L163.474 445.967L161.407 445.965L160.374 444.182ZM224.867 427.1L226.371 424.512L229.375 424.515L230.874 427.106L229.369 429.696L226.365 429.692L224.867 427.1ZM230.548 427.106L229.211 424.795L226.532 424.793L225.191 427.1L226.527 429.413L229.206 429.415L230.548 427.106ZM236.218 358.906L238.17 355.551L242.064 355.555L244.007 358.914L242.057 362.269L238.163 362.265L236.218 358.906ZM158.867 336.892L160.426 334.21L163.539 334.213L165.091 336.899L163.533 339.58L160.42 339.577L158.867 336.892ZM164.755 336.899L163.37 334.505L160.594 334.501L159.202 336.893L160.588 339.287L163.364 339.29L164.755 336.899ZM205.88 320.437L208.295 316.285L213.115 316.29L215.521 320.448L213.106 324.603L208.285 324.597L205.88 320.437ZM215.39 320.447L213.049 316.403L208.36 316.398L206.009 320.438L208.352 324.485L213.04 324.49L215.39 320.447ZM160.518 320.286L157.155 320.282L155.476 317.38L157.161 314.481L160.524 314.485L162.204 317.387L160.518 320.286ZM157.206 314.56L155.567 317.38L157.2 320.204L160.473 320.207L162.112 317.387L160.479 314.563L157.206 314.56ZM223.697 284.615L226.634 279.56L232.498 279.566L235.424 284.627L232.486 289.68L226.624 289.674L223.697 284.615ZM234.79 284.627L232.18 280.114L226.952 280.108L224.33 284.615L226.941 289.127L232.17 289.132L234.79 284.627ZM204.091 248.202L209.582 238.757L220.541 238.769L226.01 248.225L220.52 257.671L209.562 257.659L204.091 248.202ZM224.824 248.224L219.947 239.792L210.174 239.781L205.279 248.203L210.156 256.637L219.928 256.647L224.824 248.224ZM164.093 235.94L165.294 233.874L167.693 233.877L168.889 235.946L167.688 238.014L165.29 238.011L164.093 235.94ZM168.824 235.946L167.66 233.933L165.327 233.93L164.158 235.94L165.323 237.955L167.656 237.957L168.824 235.946ZM125.633 146.419L128.548 141.405L134.367 141.412L137.272 146.432L134.356 151.448L128.537 151.441L125.633 146.419ZM152.816 129.575L155.065 125.705L159.554 125.71L161.795 129.584L159.546 133.454L155.056 133.449L152.816 129.575ZM161.309 129.584L159.311 126.129L155.307 126.125L153.303 129.575L155.299 133.03L159.303 133.034L161.309 129.584ZM130.832 9.156L135.223 1.60198L143.986 1.61102L148.359 9.17498L143.97 16.728L135.207 16.718L130.832 9.156ZM147.411 9.17498L143.511 2.42901L135.696 2.41998L131.78 9.15801L135.682 15.9L143.496 15.909L147.411 9.17498Z" fill="#0957DE"/>
</g>
<defs>
<clipPath id="clip0_562_2737">
<rect width="650" height="244" fill="white" transform="translate(0 650) rotate(-90)"/>
</clipPath>
</defs>
</svg>
