<svg width="219" height="650" viewBox="0 0 219 650" fill="none" xmlns="http://www.w3.org/2000/svg">
<path opacity="0.122" fill-rule="evenodd" clip-rule="evenodd" d="M16.7184 650.003L56.1984 649.961L75.9084 615.891L56.1254 581.876L16.6454 581.919L12.4044 589.248L11.4054 587.529L6.37835 587.535L3.86936 591.872L6.38736 596.205L8.38036 596.203L-3.05964 615.976L16.7184 650.003ZM4.00536 591.872L6.44635 587.652L11.3384 587.646L12.3374 589.365L8.44836 596.086L6.45535 596.088L4.00536 591.872ZM12.8724 590.286L13.7884 591.861L11.3474 596.083L9.51836 596.085L12.8724 590.286ZM9.45035 596.202L11.4154 596.2L13.9254 591.861L12.9404 590.169L17.1814 582.84L55.5914 582.798L74.8384 615.892L55.6634 649.041L17.2524 649.081L-1.99064 615.974L9.45035 596.202ZM82.8124 593.508L90.0164 593.501L93.6124 587.287L90.0034 581.077L82.7994 581.085L79.2034 587.302L82.8124 593.508ZM89.9064 581.245L93.4174 587.287L89.9184 593.333L82.9094 593.34L79.3974 587.302L82.8964 581.253L89.9064 581.245ZM118.478 587.69L124.298 587.684L127.201 582.664L124.286 577.648L118.466 577.654L115.561 582.676L118.478 587.69ZM86.2594 569.597L105.247 536.766L86.1884 503.976L48.1413 504.017L46.2884 507.217L35.8883 489.334L-3.59165 489.377L-23.2956 523.434L-3.51765 557.462L35.9604 557.42L38.5274 552.984L48.2104 569.638L86.2594 569.597ZM35.4264 556.499L-2.98465 556.539L-22.2266 523.432L-3.05665 490.298L35.3553 490.257L45.7553 508.139L29.1454 536.847L37.9924 552.063L35.4264 556.499ZM47.8194 511.687L54.6023 523.35L40.0473 548.51L33.2644 536.843L47.8194 511.687ZM40.5834 549.43L55.6723 523.349L48.3523 510.766L50.2034 507.567L84.1334 507.53L101.129 536.77L84.1964 566.048L50.2674 566.085L40.5834 549.43ZM37.6094 494.889L36.0604 492.227L32.9704 492.23L31.4284 494.895L32.9764 497.56L36.0664 497.556L37.6094 494.889ZM134.565 481.764L155.136 446.196L134.594 410.86L137.28 410.857L142.019 402.666L158.64 402.649L173.824 376.396L158.582 350.171L132.89 350.199L114.357 318.318L117.042 318.315L123.807 306.625L125.533 309.597L151.948 309.569L154.722 304.772L155.338 305.832L193.955 305.79L213.228 272.469L193.883 239.186L181.662 239.199L184.766 233.833L172.014 211.894L146.557 211.922L137.035 228.377L133.584 222.44L123.827 222.45L111.492 201.229L112.247 199.925L78.4603 141.801L72.9483 141.807L80.0853 129.471L72.4563 116.347L96.3273 116.322L115.216 83.666L116.733 86.281L120.466 86.277L122.328 83.055L120.459 79.838L117.427 79.84L129.988 58.122L96.2043 -0.000981861L28.7573 0.0710211L-4.90367 58.266L17.7163 97.182L-1.00967 129.557L8.58834 146.069L-22.6457 200.069L11.1393 258.196L25.8273 258.181L34.3963 272.922L20.0813 272.937L-9.53766 324.147L20.1923 375.293L64.9573 375.245L73.1063 389.266L94.1813 389.243L106.656 410.707L93.2663 410.721L79.4363 434.632L65.9533 411.434L27.9033 411.475L8.90835 444.305L27.9754 477.096L66.0224 477.056L78.2724 455.877L93.3434 481.808L134.565 481.764ZM122.228 83.055L120.416 86.19L116.783 86.194L115.266 83.579L117.378 79.928L120.409 79.925L122.228 83.055ZM117.567 66.982L110.278 66.989L106.403 60.324L110.264 53.652L117.996 53.644L121.648 59.926L117.567 66.982ZM2.39933 58.259L32.4153 6.36202L92.5593 6.29902L122.687 58.13L122.116 59.116L118.465 52.834L109.793 52.843L105.463 60.325L109.81 67.8L117.099 67.792L92.6713 110.029L68.7993 110.055L59.7733 94.527L23.5023 94.566L2.39933 58.259ZM24.2733 95.894L59.0043 95.856L67.2583 110.057L32.5273 110.094L24.2733 95.894ZM0.531334 129.556L18.4873 98.51L28.8823 116.394L70.9163 116.349L78.5443 129.473L71.4083 141.809L11.0143 141.873L9.35633 144.74L0.531334 129.556ZM128.621 401.971L117.761 383.286L131.835 358.952L136.81 358.946L151.687 384.527L141.603 401.957L128.621 401.971ZM112.968 376.461L116.79 383.036L113.769 388.261L94.4473 388.281L92.3033 384.591L107.12 358.978L123.09 358.961L112.968 376.461ZM123.913 358.96L130.719 358.953L117.202 382.325L113.793 376.46L123.913 358.96ZM173.001 376.396L158.227 401.939L142.429 401.956L152.514 384.527L137.223 358.234L132.246 358.239L134.898 353.655L133.303 350.908L158.172 350.882L173.001 376.396ZM124.326 358.248L128.567 350.913L132.186 350.909L133.784 353.656L131.131 358.24L124.326 358.248ZM86.9383 317.635L72.0663 292.049L77.4683 282.711L83.5353 282.705L103.829 317.617L86.9383 317.635ZM82.7313 281.32L78.2703 281.325L80.4973 277.476L82.7313 281.32ZM81.2993 276.09L86.8833 266.436L107.262 266.414L98.6523 281.303L84.3373 281.318L81.2993 276.09ZM116.63 317.604L105.436 317.616L85.1423 282.703L99.4563 282.687L108.869 266.413L116.574 266.404L120.356 272.908L112.301 286.831L123.393 305.914L116.63 317.604ZM120.768 272.195L116.987 265.692L109.281 265.7L120.534 246.245L133.61 246.231L137.307 239.839L146.134 255.018L140.923 264.028L125.484 264.044L120.768 272.195ZM151.542 264.633L164.42 286.774L156.451 300.55L140.174 272.547L144.747 264.64L151.542 264.633ZM120.714 273.523L131.451 291.986L123.75 305.297L113.015 286.829L120.714 273.523ZM151.59 308.953L125.89 308.98L124.163 306.009L132.276 291.985L121.126 272.811L125.842 264.66L140.566 264.644L135.993 272.552L154.365 304.157L151.59 308.953ZM209.049 272.473L191.861 302.187L157.425 302.225L156.809 301.166L165.135 286.774L151.899 264.016L145.103 264.023L149.846 255.823L172.062 255.8L179.577 242.806L191.797 242.793L209.049 272.473ZM151.221 253.445L157.361 242.83L176.821 242.809L170.681 253.424L151.221 253.445ZM147.937 214.296L170.639 214.272L182.01 233.836L178.907 239.202L155.266 239.227L147.509 252.64L138.682 237.461L140.495 234.33L138.416 230.752L147.937 214.296ZM137.936 236.174L136.603 233.885L137.669 232.041L139.001 234.331L137.936 236.174ZM136.29 229.666L133.847 233.888L136.559 238.552L132.862 244.944L121.279 244.957L129.075 231.478L124.575 223.737L132.839 223.728L136.29 229.666ZM120.117 244.192L114.4 234.357L120.539 223.741L122.969 223.738L127.469 231.48L120.117 244.192ZM104.945 199.933L74.9283 251.832L23.7763 251.887L11.9863 231.603L40.8033 181.779L94.3593 181.723L104.945 199.933ZM14.6723 148.165L67.7653 148.108L59.0763 163.129L20.0703 163.171L13.0143 151.032L14.6723 148.165ZM-15.3447 200.061L12.2443 152.361L19.3003 164.5L59.8473 164.456L69.3043 148.106L74.8173 148.101L93.5553 180.338L39.9983 180.396L10.3793 231.605L22.1703 251.888L14.7833 251.896L-15.3447 200.061ZM79.4303 272.874L36.0023 272.92L27.4333 258.179L78.5863 258.124L110.69 202.615L122.221 222.452L119.791 222.454L112.908 234.359L119.371 245.48L107.675 265.702L86.4703 265.724L80.8853 275.379L79.4303 272.874ZM78.6273 274.26L80.0833 276.765L77.4453 281.326L40.9113 281.365L36.8053 274.304L78.6273 274.26ZM-7.93066 324.145L20.8863 274.321L35.2003 274.306L40.1093 282.751L76.6423 282.712L71.2403 292.05L86.4203 318.165L73.0303 318.179L52.4593 353.742L64.1533 373.861L20.9933 373.907L-7.93066 324.145ZM104.696 319.108L107.552 324.022L78.7353 373.845L65.2693 373.86L53.5753 353.741L73.5883 319.141L104.696 319.108ZM66.0733 375.244L79.5403 375.229L109.158 324.02L106.302 319.106L113.694 319.098L131.774 350.2L128.155 350.204L123.502 358.249L106.706 358.267L91.4783 384.592L93.6223 388.282L73.6643 388.303L66.0733 375.244ZM95.0063 389.242L114.328 389.222L117.35 383.997L128.211 402.681L141.192 402.667L136.865 410.145L107.174 410.177L95.0063 389.242ZM63.9593 473.506L30.0303 473.542L13.0273 444.301L29.9673 415.025L63.8963 414.989L77.3814 438.186L72.6963 446.284L76.2083 452.327L63.9593 473.506ZM77.9394 439.147L80.8923 444.229L76.7653 451.365L73.8113 446.283L77.9394 439.147ZM78.8284 454.915L85.0113 444.224L79.9953 435.594L93.8253 411.683L133.931 411.64L154.019 446.197L134.006 480.803L93.9004 480.845L78.8284 454.915ZM116.559 427.874L114.308 424.004L109.819 424.009L107.579 427.884L109.828 431.753L114.317 431.748L116.559 427.874ZM108.066 427.883L110.062 424.428L114.067 424.424L116.073 427.874L114.074 431.33L110.069 431.334L108.066 427.883ZM50.4003 427.615L46.6373 421.143L39.1263 421.151L35.3773 427.631L39.1393 434.106L46.6513 434.098L50.4003 427.615ZM35.5803 427.631L39.2273 421.326L46.5354 421.319L50.1953 427.615L46.5494 433.923L39.2403 433.931L35.5803 427.631ZM119.854 220.559L118.296 217.877L115.183 217.881L113.628 220.566L115.19 223.248L118.302 223.244L119.854 220.559ZM113.966 220.566L115.352 218.171L118.127 218.168L119.517 220.559L118.133 222.954L115.357 222.957L113.966 220.566ZM17.3733 402.347L15.8243 399.684L12.7343 399.688L11.1913 402.354L12.7393 405.018L15.8303 405.014L17.3733 402.347ZM-9.99066 335.073L-13.7527 328.602L-21.2637 328.61L-25.0137 335.088L-21.2507 341.564L-13.7397 341.556L-9.99066 335.073ZM-24.8087 335.088L-21.1627 328.785L-13.8547 328.777L-10.1947 335.073L-13.8407 341.382L-21.1487 341.389L-24.8087 335.088ZM177.726 23.904L137.486 23.947L124.197 1.08202L119.312 1.08802L135.048 28.162L180.174 28.114L195.852 1.00601L190.967 1.01101L177.726 23.904ZM189.891 31.5L194.513 39.453L203.742 39.443L208.349 31.48L203.725 23.525L194.496 23.535L189.891 31.5ZM207.349 31.481L203.241 38.582L195.012 38.591L190.889 31.499L194.997 24.396L203.227 24.387L207.349 31.481ZM113.348 129.898L99.5543 129.913L92.6713 141.817L99.5793 153.704L113.374 153.689L120.257 141.788L113.348 129.898ZM112.626 152.402L100.325 152.416L94.1643 141.816L100.303 131.2L112.603 131.186L118.764 141.789L112.626 152.402ZM140.534 165.145L145.56 165.14L148.069 160.803L145.551 156.472L140.947 156.477L143.046 152.849L138.701 145.376L130.031 145.385L125.7 152.867L130.047 160.341L138.295 160.333L138.016 160.814L140.534 165.145ZM126.639 152.866L130.5 146.194L138.233 146.186L142.106 152.85L138.247 159.523L130.515 159.532L126.639 152.866ZM138.431 160.333L138.717 160.332L140.879 156.594L145.483 156.59L147.933 160.803L145.492 165.023L140.602 165.029L138.152 160.814L138.431 160.333ZM134.832 91.575L154.723 125.795L179.167 125.768L175.552 132.017L185.708 149.49L176.75 149.5L162.986 173.294L176.802 197.061L204.381 197.032L218.144 173.235L204.401 149.592L206.198 149.59L216.39 131.974L206.159 114.381L201.005 114.386L214.249 91.49L194.357 57.269L154.649 57.311L134.832 91.575ZM217.399 173.236L204.008 196.389L177.173 196.417L163.732 173.293L177.124 150.143L203.958 150.115L217.399 173.236ZM215.838 131.974L205.921 149.114L186.055 149.136L176.105 132.016L179.719 125.768L194.43 125.752L200.729 114.864L205.884 114.858L215.838 131.974ZM180.257 124.841L186.019 114.879L199.654 114.865L193.892 124.826L180.257 124.841ZM213.174 91.491L199.93 114.388L185.742 114.403L179.703 124.841L155.259 124.867L135.907 91.574L155.188 58.237L193.82 58.196L213.174 91.491ZM203.914 84.189L204.957 85.983L207.041 85.981L208.079 84.184L207.036 82.39L204.953 82.392L203.914 84.189ZM207.855 84.185L206.927 85.786L205.069 85.788L204.139 84.188L205.066 82.586L206.923 82.584L207.855 84.185ZM135.374 205.818L136.411 207.6L138.479 207.598L139.512 205.813L138.474 204.033L136.407 204.035L135.374 205.818ZM199.867 222.9L201.371 225.488L204.375 225.485L205.874 222.894L204.369 220.304L201.365 220.308L199.867 222.9ZM205.548 222.894L204.211 225.205L201.532 225.207L200.191 222.9L201.527 220.587L204.206 220.585L205.548 222.894ZM211.218 291.094L213.17 294.449L217.064 294.445L219.007 291.086L217.057 287.731L213.163 287.735L211.218 291.094ZM133.867 313.108L135.426 315.79L138.539 315.787L140.091 313.101L138.533 310.42L135.42 310.423L133.867 313.108ZM139.755 313.101L138.37 315.495L135.594 315.499L134.202 313.107L135.588 310.713L138.364 310.71L139.755 313.101ZM180.88 329.563L183.295 333.715L188.115 333.71L190.521 329.552L188.106 325.397L183.285 325.403L180.88 329.563ZM190.39 329.553L188.049 333.597L183.36 333.602L181.009 329.562L183.352 325.515L188.04 325.51L190.39 329.553ZM135.518 329.714L132.155 329.718L130.476 332.62L132.161 335.519L135.524 335.515L137.204 332.613L135.518 329.714ZM132.206 335.44L130.567 332.62L132.2 329.796L135.473 329.793L137.112 332.613L135.479 335.437L132.206 335.44ZM198.697 365.385L201.634 370.44L207.498 370.434L210.424 365.373L207.486 360.32L201.624 360.326L198.697 365.385ZM209.79 365.373L207.18 369.886L201.952 369.892L199.33 365.385L201.941 360.873L207.17 360.868L209.79 365.373ZM179.091 401.798L184.582 411.243L195.541 411.231L201.01 401.775L195.52 392.329L184.562 392.341L179.091 401.798ZM199.824 401.776L194.947 410.208L185.174 410.219L180.279 401.797L185.156 393.363L194.928 393.353L199.824 401.776ZM139.093 414.06L140.294 416.126L142.693 416.123L143.889 414.054L142.688 411.986L140.29 411.989L139.093 414.06ZM143.824 414.054L142.66 416.067L140.327 416.07L139.158 414.06L140.323 412.045L142.656 412.043L143.824 414.054ZM100.633 503.581L103.548 508.595L109.367 508.588L112.272 503.568L109.356 498.552L103.537 498.559L100.633 503.581ZM127.816 520.425L130.065 524.295L134.554 524.29L136.795 520.416L134.546 516.546L130.056 516.551L127.816 520.425ZM136.309 520.416L134.311 523.871L130.307 523.875L128.303 520.425L130.299 516.97L134.303 516.966L136.309 520.416ZM105.832 640.844L110.223 648.398L118.986 648.389L123.359 640.825L118.97 633.272L110.207 633.282L105.832 640.844ZM122.411 640.825L118.511 647.571L110.696 647.58L106.78 640.842L110.682 634.1L118.496 634.091L122.411 640.825Z" fill="#0154F7"/>
</svg>
