<svg width="79" height="80" viewBox="0 0 79 80" fill="none" xmlns="http://www.w3.org/2000/svg">
<path d="M26.883 77H45.622C49.2206 77 52.117 74.1036 52.117 70.505V58.6559C52.117 55.0573 55.0573 52.117 58.6559 52.117H70.505C74.1036 52.117 77 49.2206 77 45.622V33.378C77 29.7794 74.1036 26.883 70.505 26.883H58.6559C55.0573 26.883 52.117 23.9427 52.117 20.3441V8.49503C52.117 4.89643 49.2206 2 45.622 2H33.378C29.7794 2 26.883 4.89643 26.883 8.49503V20.3441C26.883 23.9427 23.9427 26.883 20.3441 26.883H8.49503C4.89643 26.883 2 29.7794 2 33.378V46.6753C2 49.7033 4.41369 52.117 7.44178 52.117" stroke="#0154F7" stroke-width="3" stroke-miterlimit="10"/>
<path d="M27.4101 76.7806C40.0052 66.0287 44.1743 58.6559 45.5348 54.8818C46.0614 53.653 46.3686 52.2926 46.3686 50.8444C46.3686 45.1393 41.7167 40.4874 35.9678 40.4874C32.062 40.4874 28.6389 42.6817 26.8835 45.8853C25.1281 42.6817 21.705 40.4874 17.7554 40.4874C12.0064 40.4874 7.39844 45.1393 7.39844 50.8444C7.39844 51.2247 7.41307 51.5904 7.44232 51.9415" stroke="#0154F7" stroke-width="6" stroke-linecap="round" stroke-linejoin="round"/>
</svg>
