<svg width="80" height="80" viewBox="0 0 80 80" fill="none" xmlns="http://www.w3.org/2000/svg">
<path d="M14.8913 26.362C7.75901 26.362 2 32.1653 2 39.2977C2 46.43 7.75901 52.2333 14.8913 52.2333H27.8712V64.8145C27.8712 71.7696 33.2315 77.7501 40.1867 78.1045C47.5848 78.4589 53.6982 72.5227 53.6982 65.1689V26.2734L14.8913 26.362Z" stroke="#0154F7" stroke-width="3" stroke-miterlimit="10"/>
<path d="M64.7287 52.1446C71.5067 52.1446 76.9999 46.6514 76.9999 39.8292C76.9999 33.0513 71.5067 27.5581 64.7287 27.5581H59.3241C55.5143 27.5581 52.4133 24.4571 52.4133 20.6473V15.5971C52.4133 8.99638 47.3188 3.32597 40.7181 3.01587C33.6744 2.66147 27.8711 8.28758 27.8711 15.2427V52.1889L64.7287 52.1446Z" stroke="#0154F7" stroke-width="6" stroke-miterlimit="10"/>
</svg>
