<svg width="81" height="78" viewBox="0 0 81 78" fill="none" xmlns="http://www.w3.org/2000/svg">
<path d="M46.7056 76.1281C50.6122 76.1281 53.7864 72.9539 53.7864 69.0473C53.7864 68.8031 53.7728 68.5589 53.7457 68.3148C53.7457 68.3148 53.9085 61.1118 40.8049 49.9615C40.8049 49.9615 40.52 49.636 40.1537 49.9615C31.5265 57.2865 28.6779 63.7163 27.7419 66.3207C27.4164 67.1753 27.2129 68.0706 27.2129 69.0473C27.2129 72.9539 30.3871 76.1281 34.2937 76.1281" stroke="#0154F7" stroke-width="3" stroke-miterlimit="10"/>
<path d="M31.3242 59.5654C31.3242 59.5654 42.9629 43.3283 68.1935 28.8004C72.5478 26.2773 78.0008 29.4108 78.0008 34.4569V44.6712C78.0008 48.293 75.0708 51.223 71.449 51.223" stroke="#0154F7" stroke-width="3" stroke-miterlimit="10"/>
<path d="M49.4731 58.955C49.4731 58.955 38.038 43.3283 12.8074 28.8004C8.45307 26.2773 3 29.4108 3 34.4569V44.6712C3 48.293 5.93001 51.223 9.55182 51.223" stroke="#0154F7" stroke-width="3" stroke-miterlimit="10"/>
<path d="M53.7864 10.0808C53.7864 6.17417 50.6122 3 46.7056 3C44.0197 3 41.7001 4.5057 40.4793 6.7032C39.2992 4.5057 36.9796 3 34.2937 3C30.3871 3 27.2129 6.17417 27.2129 10.0808C27.2129 10.325 27.2265 10.5692 27.2536 10.8133C27.2536 10.8133 27.0908 18.0163 40.1944 29.1666C40.1944 29.1666 40.4793 29.4921 40.8456 29.1666C49.4728 21.8416 52.3214 15.4118 53.2574 12.8074C53.5829 11.9935 53.7864 11.0575 53.7864 10.0808Z" stroke="#0154F7" stroke-width="6" stroke-linecap="round" stroke-linejoin="round"/>
<path d="M49.6766 19.5627C49.6766 19.5627 38.038 35.7998 12.8074 50.3277C8.45307 52.8508 3 49.7173 3 44.6712V34.4569C3 30.8351 5.93001 27.9051 9.55182 27.9051" stroke="#0154F7" stroke-width="6" stroke-miterlimit="10"/>
<path d="M31.5273 20.1731C31.5273 20.1731 42.9625 35.7998 68.1931 50.3277C72.5474 52.8508 78.0005 49.7173 78.0005 44.6712V34.4569C78.0005 30.8351 75.0705 27.9051 71.4487 27.9051" stroke="#0154F7" stroke-width="6" stroke-miterlimit="10"/>
<path d="M47.3574 76.1281C47.3574 77.1455 46.7063 77.9187 45.8924 77.9187C45.0378 77.9187 44.3867 77.1455 44.3867 76.1281C44.3867 75.1515 45.0378 74.3376 45.8924 74.3376C46.7063 74.3376 47.3574 75.1515 47.3574 76.1281Z" fill="#0154F7"/>
<path d="M36.6133 76.1281C36.6133 77.1454 35.9622 77.9186 35.1076 77.9186C34.2937 77.9186 33.6426 77.1454 33.6426 76.1281C33.6426 75.1514 34.2937 74.3375 35.1076 74.3375C35.9622 74.3375 36.6133 75.1514 36.6133 76.1281Z" fill="#0154F7"/>
</svg>
