<svg width="81" height="81" viewBox="0 0 81 81" fill="none" xmlns="http://www.w3.org/2000/svg">
<path d="M78.0009 39.2702V33.1253C78.0009 29.5035 75.0709 26.5735 71.4491 26.5735H59.8105C56.148 26.5735 53.218 23.6028 53.218 19.981V8.34235C53.218 4.72053 50.288 1.79053 46.6661 1.79053H45.4453" stroke="#0154F7" stroke-width="3" stroke-miterlimit="10"/>
<path d="M3 39.2702V33.1253C3 29.5035 5.93001 26.5735 9.55182 26.5735H21.2311C24.853 26.5735 27.783 23.6028 27.783 19.981V8.34235C27.783 4.72053 30.713 1.79053 34.3348 1.79053H35.7998" stroke="#0154F7" stroke-width="3" stroke-miterlimit="10"/>
<path d="M46.9512 1.79056C46.9512 2.76723 46.2594 3.58112 45.4455 3.58112C44.6316 3.58112 43.9805 2.76723 43.9805 1.79056C43.9805 0.773196 44.6316 0 45.4455 0C46.2594 0 46.9512 0.773196 46.9512 1.79056Z" fill="#0154F7"/>
<path d="M37.2656 1.79056C37.2656 2.76723 36.6145 3.58112 35.8006 3.58112C34.9867 3.58112 34.2949 2.76723 34.2949 1.79056C34.2949 0.773196 34.9867 0 35.8006 0C36.6145 0 37.2656 0.773196 37.2656 1.79056Z" fill="#0154F7"/>
<path d="M78 39.2702V44.9674C78 48.7113 74.9886 51.7227 71.2447 51.7227H57.5307C49.0255 51.7227 41.1715 56.1584 36.6951 63.4021L34.6196 66.7797C31.8117 71.3782 35.108 77.2789 40.5203 77.2789C45.892 77.2789 49.1883 71.3782 46.3804 66.7797L44.3049 63.4021C39.8692 56.1584 31.9745 51.7227 23.4693 51.7227H9.75529C6.0114 51.7227 3 48.7113 3 44.9674V39.2702" stroke="#0154F7" stroke-width="6" stroke-miterlimit="10"/>
</svg>
