<svg width="35" height="30" viewBox="0 0 35 30" fill="none" xmlns="http://www.w3.org/2000/svg">
<path d="M13.3771 3.28555C11.7835 5.2139 9.22708 8.30732 8.66855 12.0297C8.45117 13.4783 8.23378 16.0378 11.3254 16.6173C14.1529 17.1472 17.3639 21.9292 13.4993 26.9997C11.5937 29.4999 4.23146 31.3459 0.939394 23.6194C-0.912384 19.2733 -1.28274 8.55274 12.05 0.439924C13.4783 -0.429223 15.6999 -0.0428929 14.4654 1.88864C14.2396 2.2419 13.8509 2.71223 13.3771 3.28555Z" fill="#0154F7"/>
<path d="M33.0955 3.28554C31.5018 5.2139 28.9454 8.30732 28.3869 12.0297C28.1695 13.4783 27.9521 16.0378 31.0437 16.6173C33.8712 17.1472 37.0822 21.9292 33.2176 26.9997C31.312 29.4999 23.9498 31.3459 20.6577 23.6194C18.8059 19.2733 18.4356 8.55274 31.7684 0.439924C33.1966 -0.429223 35.4182 -0.0428929 34.1837 1.88864C33.9579 2.2419 33.5693 2.71223 33.0955 3.28554Z" fill="#0154F7"/>
</svg>
